<svg height="512.01949pt" viewBox="0 0 512.01949 512.01949" width="512.01949pt" xmlns="http://www.w3.org/2000/svg"><path d="m511.929688 249.277344c-3.71875-141.339844-121.3125-252.90625-262.652344-249.1875002-141.339844 3.7187502-252.90625 121.3125002-249.1875002 262.6523442 3.7187502 141.339843 121.3125002 252.90625 262.6523442 249.1875 141.339843-3.71875 252.90625-121.3125 249.1875-262.652344zm0 0" fill="#b5e237"/><path d="m512.003906 255.992188c0 141.378906-114.621094 255.996093-256 255.996093s-255.9960935-114.617187-255.9960935-255.996093c0-46.222657 12.2499995-89.570313 33.6796875-127 44.117188 77.070312 127.15625 129 222.316406 129s178.210938-51.929688 222.320313-129c21.429687 37.429687 33.679687 80.777343 33.679687 127zm0 0" fill="#95d600"/><path d="m481.261719 377.691406v.007813c-43.289063 79.96875-127.9375 134.289062-225.257813 134.289062-97.320312 0-181.96875-54.320312-225.257812-134.289062v-.007813zm0 0" fill="#84af10"/><path d="m430.742188 323.367188h-266.949219c0-20.078126 16.28125-36.339844 36.339843-36.339844h194.269532c10.03125 0 19.113281 4.070312 25.691406 10.648437s10.648438 15.660157 10.648438 25.691407zm0 0" fill="#e0e1e2"/><path d="m430.742188 323.367188h-147.625v-36.339844h111.285156c10.03125 0 19.117187 4.070312 25.691406 10.648437 6.578125 6.578125 10.648438 15.660157 10.648438 25.691407zm0 0" fill="#adb5bc"/><path d="m454.273438 320.140625v26.980469c0 7.390625-5.988282 13.390625-13.390626 13.390625h-26.378906c-7.960937 0-14.410156 6.449219-14.410156 14.40625v16.640625c0 6.691406-2.710938 12.742187-7.089844 17.121094-4.378906 4.378906-10.429687 7.078124-17.109375 7.078124-12.582031 0-22.789062 10.203126-22.789062 22.792969v.46875c0 12.589844 10.207031 22.789063 22.789062 22.789063h8.480469c5.769531 0 10.910156 2.628906 14.320312 6.75-8.292968 5.582031-16.921874 10.679687-25.863281 15.269531-27.398437 14.082031-57.675781 23.371094-89.71875 26.742187-8.910156.9375-17.949219 1.417969-27.109375 1.417969-32.039062 0-62.699218-5.890625-90.96875-16.640625v-14.988281c0-10.25 8.300782-18.550781 18.550782-18.550781h8.46875c12.589843 0 22.78125-10.199219 22.78125-22.789063v-.46875c0-12.589843-10.191407-22.792969-22.78125-22.792969h-2.257813c-8.832031 0-17.570313-1.097656-26-3.269531-17.769531-4.5-34.191406-13.636719-47.550781-26.648437l-56.980469-55.550782c-8.828125-8.589843-2.738281-23.546874 9.582031-23.546874h372.035156c5.769532 0 10.691407 3.648437 12.570313 8.769531.53125 1.4375.820313 3 .820313 4.628906zm0 0" fill="#adb5bc"/><path d="m454.273438 320.140625v26.980469c0 7.390625-5.988282 13.390625-13.390626 13.390625h-26.378906c-7.960937 0-14.410156 6.449219-14.410156 14.40625v16.640625c0 6.691406-2.710938 12.742187-7.089844 17.121094-4.378906 4.378906-10.429687 7.078124-17.109375 7.078124-12.582031 0-22.789062 10.203126-22.789062 22.792969v.46875c0 12.589844 10.207031 22.789063 22.789062 22.789063h8.480469c5.769531 0 10.910156 2.628906 14.320312 6.75-8.292968 5.582031-16.921874 10.679687-25.863281 15.269531-27.398437 14.082031-57.675781 23.371094-89.71875 26.742187v-203.828124h157.769531c5.769532 0 10.691407 3.648437 12.570313 8.769531.53125 1.4375.820313 3 .820313 4.628906zm0 0" fill="#8a97a0"/><path d="m372.832031 483.828125c-27.398437 14.082031-57.675781 23.371094-89.71875 26.742187-8.910156.9375-17.949219 1.417969-27.109375 1.417969-32.039062 0-62.699218-5.890625-90.96875-16.640625-5.007812-1.898437-9.929687-3.957031-14.78125-6.160156 2.570313-3.269531 6.570313-5.359375 11.050782-5.359375zm0 0" fill="#474f6f"/><path d="m163.796875 306.746094v105.746094c-17.769531-4.503907-34.195313-13.644532-47.550781-26.65625l-56.976563-55.542969c-8.832031-8.59375-2.746093-23.546875 9.574219-23.546875zm0 0" fill="#e0e1e2"/><path d="m283.113281 483.828125h89.71875c-27.398437 14.082031-57.675781 23.371094-89.71875 26.742187zm0 0" fill="#313b5a"/><path d="m375.890625 461.804688h-183.839844c12.589844 0 22.785157-10.195313 22.785157-22.785157v-.472656c0-12.59375-10.195313-22.785156-22.785157-22.785156h183.839844c-12.574219 0-22.785156 10.191406-22.785156 22.785156v.472656c0 12.589844 10.210937 22.785157 22.785156 22.785157zm0 0" fill="#545d7a"/><path d="m375.890625 461.804688h-92.773437v-46.042969h92.773437c-12.574219 0-22.785156 10.195312-22.785156 22.785156v.472656c0 12.589844 10.210937 22.785157 22.785156 22.785157zm0 0" fill="#474f6f"/><path d="m243.082031 109.792969 111.199219 111.199219-24.410156 24.410156-111.199219-111.199219c-4.226563-4.226563-4.226563-11.058594 0-15.289063l9.121094-9.121093c4.226562-4.226563 11.0625-4.226563 15.289062 0zm0 0" fill="#e0e1e2"/><path d="m243.082031 109.792969 111.199219 111.199219-12.21875 12.21875-118.84375-118.84375 4.574219-4.574219c4.226562-4.226563 11.0625-4.226563 15.289062 0zm0 0" fill="#adb5bc"/><path d="m336.933594 85.523438 24.425781 24.425781c6.566406 6.566406 6.566406 17.203125 0 23.769531l-118.765625 118.765625c-6.566406 6.5625-17.203125 6.5625-23.769531 0l-24.421875-24.425781c-6.566406-6.566406-6.566406-17.203125 0-23.769532l118.765625-118.765624c6.5625-6.5625 17.203125-6.5625 23.765625 0zm0 0" fill="#d0f6ff"/><path d="m336.933594 85.523438 24.425781 24.425781c6.566406 6.566406 6.566406 17.203125 0 23.769531l-59.394531 59.394531-48.195313-48.191406 59.398438-59.398437c6.5625-6.5625 17.203125-6.5625 23.765625 0zm0 0" fill="#8fc9f7"/><path d="m317.84375 81.644531 47.394531 47.394531c10.355469 10.359376 10.371094 27.148438.011719 37.503907l-89.84375 89.847656c-10.355469 10.351563-27.144531 10.339844-37.5-.015625l-47.398438-47.394531c-10.351562-10.355469-10.351562-27.136719 0-37.492188l89.847657-89.84375c10.351562-10.355469 27.132812-10.355469 37.488281 0zm0 0" fill="#fff"/><path d="m317.84375 81.644531 47.394531 47.394531c10.355469 10.359376 10.371094 27.148438.011719 37.503907l-44.914062 44.917969-84.898438-84.898438 44.917969-44.917969c10.351562-10.355469 27.132812-10.355469 37.488281 0zm0 0" fill="#d0f6ff"/><path d="m305.714844 112.402344 28.765625 28.765625c5.371093 5.371093 5.359375 14.070312 0 19.425781l-65.011719 65.011719c-5.367188 5.371093-14.054688 5.371093-19.425781 0l-28.765625-28.765625c-5.355469-5.359375-5.367188-14.058594 0-19.425782l65.011718-65.011718c5.359376-5.355469 14.070313-5.355469 19.425782 0zm0 0" fill="#d0f6ff"/><path d="m305.714844 112.402344 28.765625 28.765625c5.371093 5.371093 5.359375 14.070312 0 19.425781l-32.503907 32.503906-48.191406-48.191406 32.503906-32.503906c5.359376-5.355469 14.070313-5.355469 19.425782 0zm0 0" fill="#8fc9f7"/><path d="m364.546875 222.265625 117.582031 117.582031c3.1875 3.1875 3.1875 8.351563 0 11.539063l-21.867187 21.863281c-3.183594 3.1875-8.351563 3.1875-11.539063 0l-117.582031-117.582031c-3.183594-3.183594-3.183594-8.351563 0-11.535157l21.867187-21.867187c3.1875-3.1875 8.351563-3.1875 11.539063 0zm0 0" fill="#ed771b"/><g fill="#a63914"><path d="m364.546875 222.265625 117.582031 117.582031c3.1875 3.1875 3.1875 8.351563 0 11.539063l-10.933594 10.933593-129.121093-129.121093 10.933593-10.933594c3.1875-3.1875 8.351563-3.1875 11.539063 0zm0 0"/><path d="m341.503906 266.039062 33.40625-33.40625 16.136719 16.136719-33.40625 33.40625zm0 0"/><path d="m373.792969 298.324219 33.402343-33.402344 16.136719 16.136719-33.402343 33.402344zm0 0"/><path d="m406.066406 330.597656 33.402344-33.402344 16.148438 16.148438-33.402344 33.402344zm0 0"/><path d="m471.761719 329.480469 10.367187 10.367187c3.183594 3.183594 3.183594 8.351563 0 11.535156l-21.867187 21.867188c-3.1875 3.1875-8.351563 3.1875-11.539063 0l-10.367187-10.367188zm0 0"/></g><path d="m358.207031 249.335938 16.703125-16.703126 16.136719 16.136719-16.703125 16.703125zm0 0" fill="#82240b"/><path d="m390.492188 281.621094 16.703124-16.703125 16.136719 16.136719-16.703125 16.703124zm0 0" fill="#82240b"/><path d="m422.765625 313.894531 16.703125-16.703125 16.148438 16.148438-16.703126 16.703125zm0 0" fill="#82240b"/><path d="m455.058594 346.183594 16.703125-16.703125 10.367187 10.367187c3.183594 3.1875 3.183594 8.351563 0 11.539063l-10.933594 10.933593zm0 0" fill="#82240b"/></svg>